<?xml version="1.0" encoding="utf-8"?>
<svg version="1.1" xmlns="http://www.w3.org/2000/svg" xmlns:xlink="http://www.w3.org/1999/xlink"
	 viewBox="0 0 100 100">
<path fill="#EE7219" d="M100,100V0H35.8c26.9,7.5,45.8,22.3,46.3,40.6C83.1,86.2,1.8,100,1.8,100H100z M17.4,0.9
	c9.2,5,14.5,12,17.8,20.2c1.2,3.1,2.1,6.5,2.6,10c9.7,1.2,17.9,2.7,24.5,4.4v-0.1C58.7,18.7,43.4,5.5,17.4,0.9 M7.8,2.2
	c2.8,7.5,4.6,16.9,5.1,27.1c7.3,0.4,14,0.8,20.3,1.5c-0.7-4.2-2-8.2-3.9-11.9C24.6,10.2,17,4.1,7.8,2.2 M0,92.7
	C11.9,86.6,20.9,77,26.7,66.1C16.4,67.1,9,67.4,9,67.4C6.6,76.6,3.5,85.1,0,92.7 M28.9,61.5c3.8-8.6,5.5-17.8,4.9-26.4
	c-6.5-0.7-13.5-1.3-20.8-1.6c0,8.4-1,17.9-2.6,27.1c-0.2,0.9-0.2,1.2-0.4,2.1h1.2C17.5,62.6,22.6,62.2,28.9,61.5 M8.1,93.1
	c22.2-3.2,40.4-16.7,49.3-31.9c-8.2,1.9-17.3,3.2-25.3,4.2C27,76.4,18.9,86.4,8.1,93.1 M74.4,55.5c-3.1,1.6-6.9,3-11.1,4.2
	c-3.6,7.8-9.6,15-17.6,21.2l0.1,0.1C59.2,73.7,69.5,65,74.4,55.5 M77.1,47.6c0.1-2.1-3.5-4.2-9.6-6.2h-0.1c0.1,4.5-0.6,8.9-2.1,13.2
	C72.5,52.4,77,49.9,77.1,47.6 M67,36.9L67,36.9c4.6,1.5,8.2,3.1,10.6,4.8c-0.1-0.2-0.1-0.5-0.1-0.8C76.7,28.6,67,18,51.7,10.6
	C60.3,18.1,65.7,26.8,67,36.9 M38.2,35.7c0.4,8.1-1.1,16.9-4.3,25.2l0,0c9.6-1.2,18.7-2.9,26-4.8c2.3-5.3,3.4-10.8,3.1-16
	C56.4,38.4,47.9,36.9,38.2,35.7"/>
</svg>
